<svg width="500" height="500" viewBox="0 0 500 500" fill="none" xmlns="http://www.w3.org/2000/svg">
<rect width="500" height="500" fill="white"/>
<path d="M253.008 333.779C259.849 333.779 266.386 332.791 272.619 330.815C279.003 328.687 284.628 325.722 289.493 321.922C294.205 318.121 297.93 313.637 300.666 308.468C303.554 303.3 304.999 297.599 304.999 291.366H356.305C356.457 303.376 353.72 314.701 348.096 325.342C342.623 335.832 335.174 344.877 325.749 352.478C316.172 360.382 305.151 366.615 292.685 371.176C280.372 375.584 267.374 377.789 253.692 377.789C234.69 377.789 218.044 374.52 203.754 367.983C189.617 361.295 177.835 352.326 168.41 341.076C158.833 329.827 151.612 316.753 146.748 301.855C141.883 286.806 139.451 270.768 139.451 253.742V245.761C139.451 228.887 141.807 212.925 146.52 197.875C151.384 182.825 158.605 169.676 168.182 158.426C177.759 147.177 189.617 138.284 203.754 131.747C218.044 125.058 234.614 121.714 253.464 121.714C268.362 121.714 282.12 123.994 294.737 128.555C307.507 133.115 318.452 139.5 327.573 147.709C336.694 155.918 343.763 165.723 348.78 177.125C353.948 188.526 356.457 201.067 356.305 214.749H304.999C304.999 208.06 303.706 201.751 301.122 195.823C298.69 189.894 295.193 184.725 290.633 180.317C285.92 175.908 280.296 172.412 273.759 169.828C267.374 167.243 260.457 165.951 253.008 165.951C241.607 165.951 232.106 168.307 224.505 173.02C217.056 177.581 211.127 183.585 206.719 191.034C202.006 198.483 198.662 206.996 196.686 216.573C194.861 226.15 193.949 235.88 193.949 245.761V253.742C193.949 263.775 194.861 273.656 196.686 283.385C198.662 292.962 201.93 301.399 206.491 308.696C210.899 316.297 216.904 322.378 224.505 326.938C232.106 331.499 241.607 333.779 253.008 333.779Z" fill="black"/>
</svg>
